<svg id="Camada_1" data-name="Camada 1" xmlns="http://www.w3.org/2000/svg" viewBox="0 0 1080 1080"><defs><style>.cls-1{fill:#3c2782;}.cls-2{fill:#b9201f;}.cls-3{fill:#beb1d7;}</style></defs><path class="cls-1" d="M468,487.73c-1.42,4.36-5.66,5.61-8.66,8q-13.35,10.78-27.13,21c-2.33,1.75-2.38,3-1.59,5.55,4.47,14.72,10,29.11,15.52,43.78-7.82-2.27-13-8.21-19.32-12.23-6.85-4.37-13.59-8.95-20.27-13.66-2.27-1.58-3.8-1.58-6.12,0-13,8.78-26.11,17.45-39.54,26.29.29-3.4,2-5.95,3.06-8.73,4.65-11.78,8.67-23.79,12.58-35.85.73-2.49.34-3.57-1.65-5-9.28-7.19-18.4-14.61-27.64-21.81-2.66-2.09-6.45-2.94-7.3-7.25,15,0,29.85-.05,44.69,0,1.92,0,3.28-.11,4-2.32,4.93-14.67,9.91-29.34,15.18-44.75,5.27,15.13,10.36,29.4,15.18,43.73.9,2.55,1.87,3.4,4.64,3.4C438.34,487.62,453.07,487.73,468,487.73Z"/><path class="cls-1" d="M649.61,506.71c0,11.1-10.25,20.9-21.69,20.78-10.94-.17-20.74-10.08-20.62-21,.17-12.23,9.29-21.41,21.24-21.35S649.66,494.47,649.61,506.71Z"/><path class="cls-1" d="M694.64,550.55a21.67,21.67,0,0,1-21.81,21.58c-11.55-.06-20.67-9.92-20.5-22.21a21.16,21.16,0,0,1,42.31.63Z"/><path class="cls-1" d="M694.64,460.21c-.12,11.21-10.54,21.69-21.7,21.52-11.66-.11-20.61-9.74-20.5-22,.06-11.44,9.91-20.9,21.52-20.73A21.34,21.34,0,0,1,694.64,460.21Z"/><path class="cls-1" d="M740,505.18c.06,11.72-9.74,22.14-20.84,22.2-11.5.06-21.3-9.85-21.41-21.58a21.15,21.15,0,0,1,21.18-21.07C730,484.73,739.89,494.3,740,505.18Z"/><path class="cls-1" d="M903.75,573.54c-7.36-10.31-14.33-20.95-21.75-31.26C855.72,506.2,829.67,470,804.46,433.07c-1.58-2.32-2.83-4.41-2.21-7.59a416.16,416.16,0,0,0,7.82-104.38c-.9-18.64-2.6-37.22-6.17-55.51a805.78,805.78,0,0,0-23.85-94.2c-3.11-9.74-6.63-19.37-10-29-1-3.06-2.49-4.19-5-1.25-1,1.19-2.15,2.15-3.23,3.29Q695,211.16,628.2,278.05c-2.27,2.26-4.42,3.79-7.88,3.79q-80.79-.16-161.53,0a9.31,9.31,0,0,1-7.25-3.11Q435.9,262.59,420,246.67c-34.6-34.61-68.87-69.5-104-103.6-4.53-4.36-4.7-4.36-6.8,1.76-11.72,33.64-22.2,67.69-29.84,102.52-6.52,29.51-11.05,59.25-11.5,89.44a415.15,415.15,0,0,0,8.21,89.77,9.26,9.26,0,0,1-1.42,7.76c-16.36,23.22-32.62,46.56-49,69.84s-32.62,46.22-49,69.27c-2.33,3.23-2.78,4.76,1.75,6.29,14.56,4.75,28.89,10,43.33,15.06,6.35,2.21,6.4,2.21,4.48,8.84-1.87,6.17-3.86,12.29-5.67,18.41-7.65,25.32-14.39,50.92-20.9,76.58-1,3.73.34,4.53,3.74,4.41,6.23-.17,12.52,0,18.8,0v0c6.12,0,12.24,0,18.36,0a9.87,9.87,0,0,1,6.34,2c15.86,11.49,31.89,22.71,47.58,34.43,49.62,37.1,98.16,75.45,145.28,115.66,32.68,27.87,65.53,55.57,97.71,84.06,2.21,2,3.56,1.92,5.72,0,8.38-7.37,16.93-14.56,25.37-21.81,41.12-35.63,82.64-70.86,124.78-105.29,45.48-37.16,92-73,140-106.77A12.21,12.21,0,0,1,840.6,703c11.44,0,22.94,0,34.44,0,5.83,0,5.77,0,4.47-5.55-7.42-32.35-15.69-64.52-27-95.73-1.35-3.68-.39-5.09,3.12-6.23,15.63-5,31-10.65,46.27-16.48C905.17,577.73,906,576.66,903.75,573.54ZM572.41,801a4.5,4.5,0,0,1-4.19,2.21q-28.63-.16-57.21,0a5.09,5.09,0,0,1-4.87-2.44c-5.55-8.44-11.22-16.87-17-25.2-1.31-2-1.19-2.72,1-3.62,15.47-6.07,30.87-12.3,46.28-18.53a5.67,5.67,0,0,1,4.19-.17c17.11,5.84,33.87,12.63,51,19.71C585.15,782.49,578.75,791.72,572.41,801Zm66.21-81.79c-11.5,11.16-23,22.43-34.49,33.65a3.06,3.06,0,0,1-3.69.85q-24.8-9.6-49.67-18.92c-2.15-.79-2.78-1.87-2.66-4.08.17-6.06.22-12.18.11-18.29a5.52,5.52,0,0,1,2.21-4.82c9.12-7.87,18.18-15.91,27.36-23.79A17.33,17.33,0,0,0,584,673.51a51.46,51.46,0,0,0,.34-16.14c-.79-6.8-5.66-10.59-12.57-10.59-21.75,0-43.45-.06-65.2-.06-6.17,0-10.59,3.46-11.61,9.52a45.81,45.81,0,0,0,.46,18.18,16.82,16.82,0,0,0,5.89,9.35c9.28,7.93,18.46,15.91,27.75,23.84a5.88,5.88,0,0,1,2.27,5.16c-.17,6.11-.17,12.17-.06,18.29.06,2-.68,2.89-2.49,3.57q-24,9-48,18.29c-2.26.85-3.68.51-5.49-1.24q-16.31-16.06-32.91-31.83a6.66,6.66,0,0,1-2.38-5.1c.12-16.82.06-33.59,0-50.41a6.72,6.72,0,0,1,2.16-5.21c11.55-12.07,23-24.13,34.44-36.31a6.44,6.44,0,0,1,5.26-2q28.89.09,57.78.06c19,0,38,0,57-.06a7.6,7.6,0,0,1,6.12,2.55c11.61,12.12,23.34,24.13,35.06,36.14a5.89,5.89,0,0,1,2,4.58c.06,17.11.11,34.27.28,51.43A4.78,4.78,0,0,1,638.62,719.22Zm137-90.85q-19.55,19.8-38.75,39.88a5.93,5.93,0,0,1-4.92,2.09c-6.35-.11-12.75-.11-19.09.06a8.55,8.55,0,0,1-6.69-2.72c-26.73-26.68-53.58-53.19-80.25-79.81a14.23,14.23,0,0,0-11.16-4.41q-74.85.16-149.76-.06a15,15,0,0,0-11.72,4.81c-26.68,26.91-53.53,53.59-80.27,80.38a4.69,4.69,0,0,1-3.85,1.75c-7.13-.06-14.33-.06-21.46,0a4.86,4.86,0,0,1-3.91-1.64Q323.44,648,303,627.35c-1.7-1.7-1.87-3.4-1.64-5.49,2.38-25.43,4.7-50.92,7-76.3q1.78-19,3.4-38a13.72,13.72,0,0,1,1.65-5.38q25.23-44.87,50.29-89.84c1.14-2,2.44-2.49,4.59-2.49,11.16.11,22.43,0,33.65,0v-.11c10.59,0,21.07.11,31.66-.06a12,12,0,0,1,8.44,3.06c12.46,10,25,19.82,37.44,29.79a13.74,13.74,0,0,0,9.29,3.23c33.75-.06,67.62,0,101.38.17a14.49,14.49,0,0,0,10.08-3.4c12.92-10.48,26-20.73,39-31.15a7.54,7.54,0,0,1,5.16-1.76c22.2,0,44.35.12,66.55,0a5.14,5.14,0,0,1,5.1,3q25.58,45.36,51.31,90.74A10.29,10.29,0,0,1,768.5,508q4.15,56,10.08,111.86A9.36,9.36,0,0,1,775.58,628.37Z"/><path class="cls-1" d="M740,505.18c.06,11.72-9.74,22.14-20.84,22.2-11.5.06-21.3-9.85-21.41-21.58a21.15,21.15,0,0,1,21.18-21.07C730,484.73,739.89,494.3,740,505.18Z"/><path class="cls-1" d="M694.64,550.55a21.67,21.67,0,0,1-21.81,21.58c-11.55-.06-20.67-9.92-20.5-22.21a21.16,21.16,0,0,1,42.31.63Z"/><path class="cls-1" d="M649.61,506.71c0,11.1-10.25,20.9-21.69,20.78-10.94-.17-20.74-10.08-20.62-21,.17-12.23,9.29-21.41,21.24-21.35S649.66,494.47,649.61,506.71Z"/><path class="cls-1" d="M694.64,460.21c-.12,11.21-10.54,21.69-21.7,21.52-11.66-.11-20.61-9.74-20.5-22,.06-11.44,9.91-20.9,21.52-20.73A21.34,21.34,0,0,1,694.64,460.21Z"/><path class="cls-2" d="M468,487.73c-1.42,4.36-5.66,5.61-8.66,8q-13.35,10.78-27.13,21c-2.33,1.75-2.38,3-1.59,5.55,4.47,14.72,10,29.11,15.52,43.78-7.82-2.27-13-8.21-19.32-12.23-6.85-4.37-13.59-8.95-20.27-13.66-2.27-1.58-3.8-1.58-6.12,0-13,8.78-26.11,17.45-39.54,26.29.29-3.4,2-5.95,3.06-8.73,4.65-11.78,8.67-23.79,12.58-35.85.73-2.49.34-3.57-1.65-5-9.28-7.19-18.4-14.61-27.64-21.81-2.66-2.09-6.45-2.94-7.3-7.25,15,0,29.85-.05,44.69,0,1.92,0,3.28-.11,4-2.32,4.93-14.67,9.91-29.34,15.18-44.75,5.27,15.13,10.36,29.4,15.18,43.73.9,2.55,1.87,3.4,4.64,3.4C438.34,487.62,453.07,487.73,468,487.73Z"/><path class="cls-3" d="M758.68,373.23a328,328,0,0,0-29.77-33.68v-34.2L715.38,327q-10.2-8.88-21.28-16.89c16.13-28.86,33.42-56.21,55.59-81C761.61,276.57,762.05,324.08,758.68,373.23Z"/><path class="cls-1" d="M728.91,339.55v.73l-13.78-12.95.25-.37Q722.36,333,728.91,339.55Z"/><path class="cls-3" d="M320.7,373.23a327.9,327.9,0,0,1,29.76-33.68v-34.2L364,327q10.2-8.88,21.28-16.89c-16.13-28.86-33.43-56.21-55.59-81C317.77,276.57,317.33,324.08,320.7,373.23Z"/><path class="cls-1" d="M350.46,339.55v.73l13.79-12.95L364,327Q357,333,350.46,339.55Z"/></svg>